# xmcd CD database file
#
# Track frame offsets:
#	150
#	22255
#	41673
#	64589
#	82501
#	103178
#	129812
#	147134
#	163079
#	182518
#	200780
#	218896
#	242626
#	261377
#	273336
#	320551
#
# Disc length: 4495 seconds
#
# Revision: 0
# Processed by: cddbd v1.5.2PL0 Copyright (c) Steve Scherf et al.
# Submitted via: CDex 1.60beta1-cs1
#
DISCID=e6118d10
DTITLE=Jose James - Blackmagic
DYEAR=2010
DGENRE=Jazz
TTITLE0=Code (feat. Flying Lotus)
TTITLE1=Touch
TTITLE2=Lay You Down
TTITLE3=Electromagnetic (feat. Ben Westbeech and TK Wonder)
TTITLE4=Promise In Love (feat. DJ Mitsu The Beats)
TTITLE5=Warrior
TTITLE6=Made For Love (feat. Flying Lotus)
TTITLE7=Save Your Love For Me
TTITLE8=The Greater Good
TTITLE9=Blackmagic (feat. Flying Lotus)
TTITLE10=Detroit Loveletter (feat. Moodyman)
TTITLE11=Love Conversation (feat. Jordana De Lovely)
TTITLE12=Beauty
TTITLE13=No Tellin' (I Need You)
TTITLE14=The Light
TTITLE15=Work Song (feat. Junior Mance)
EXTD=YEAR: 2010
EXTT0=
EXTT1=
EXTT2=
EXTT3=
EXTT4=
EXTT5=
EXTT6=
EXTT7=
EXTT8=
EXTT9=
EXTT10=
EXTT11=
EXTT12=
EXTT13=
EXTT14=
EXTT15=
PLAYORDER=
